<svg width="146" height="47" viewBox="0 0 146 47" fill="none" xmlns="http://www.w3.org/2000/svg">
<path d="M8.9 15.92L8.84 20.3L12.38 15.92L23.78 1.82H33.5L15.8 23.36L34.64 47H24.8L12.5 31.46L8.84 26.42L8.9 31.64V47H0.5V1.82H8.9V15.92ZM47.8648 47H39.4648V1.82H47.8648V47ZM64.6672 28.7V47H56.2672V1.82H73.7872C78.3872 1.82 81.8472 2.9 84.1672 5.06C86.5272 7.22 87.7072 10.12 87.7072 13.76V16.76C87.7072 19.84 86.9272 22.28 85.3672 24.08C83.8472 25.84 81.8672 27.06 79.4272 27.74L90.5872 47H81.2272L70.9072 28.7H64.6672ZM64.6672 22.58H71.7472C73.0272 22.58 74.1272 22.4 75.0472 22.04C76.0072 21.64 76.8072 21.12 77.4472 20.48C78.0872 19.84 78.5472 19.14 78.8272 18.38C79.1472 17.62 79.3072 16.84 79.3072 16.04V14.48C79.3072 13.68 79.1672 12.9 78.8872 12.14C78.6072 11.34 78.1672 10.64 77.5672 10.04C76.9672 9.4 76.1872 8.9 75.2272 8.54C74.2672 8.14 73.1072 7.94 71.7472 7.94H64.6672V22.58ZM105.287 47H96.8867V1.82H105.287V47ZM137.509 47V14C137.509 11.68 136.829 9.94 135.469 8.78C134.149 7.62 132.289 7.04 129.889 7.04C127.489 7.04 125.609 7.62 124.249 8.78C122.929 9.94 122.269 11.68 122.269 14V47H113.869V13.46C113.869 9.34 115.209 6.22 117.889 4.1C120.609 1.98 124.609 0.92 129.889 0.92C135.129 0.92 139.109 1.98 141.829 4.1C144.549 6.22 145.909 9.34 145.909 13.46V47H137.509Z" fill="black"/>
</svg>
